<svg width="25" height="30" viewBox="0 0 25 30" fill="none" xmlns="http://www.w3.org/2000/svg">
<path d="M25 23.6111V25H0V23.6111L2.77778 20.8333V12.5C2.77778 8.19444 5.59722 4.40278 9.72222 3.18056V2.77778C9.72222 2.04107 10.0149 1.33453 10.5358 0.813592C11.0567 0.292658 11.7633 0 12.5 0C13.2367 0 13.9432 0.292658 14.4642 0.813592C14.9851 1.33453 15.2778 2.04107 15.2778 2.77778V3.18056C19.4028 4.40278 22.2222 8.19444 22.2222 12.5V20.8333L25 23.6111ZM15.2778 26.3889C15.2778 27.1256 14.9851 27.8321 14.4642 28.3531C13.9432 28.874 13.2367 29.1667 12.5 29.1667C11.7633 29.1667 11.0567 28.874 10.5358 28.3531C10.0149 27.8321 9.72222 27.1256 9.72222 26.3889" fill="#9C6CDD"/>
</svg>
