<svg width="31" height="31" viewBox="0 0 31 31" fill="none" xmlns="http://www.w3.org/2000/svg">
<path d="M30.3822 12.601L30.3742 12.569L25.8827 1.15622C25.6826 0.511723 25.0861 0.0673828 24.4096 0.0673828H6.20366C5.52313 0.0673828 4.91867 0.51973 4.72652 1.17223L0.527303 12.4689L0.515294 12.4969L0.507288 12.5289C0.455248 12.7251 0.439235 12.9252 0.467257 13.1214C0.463254 13.1854 0.459251 13.2495 0.459251 13.3135V27.9608C0.460309 28.6059 0.717074 29.2244 1.17328 29.6806C1.62949 30.1368 2.24794 30.3936 2.89312 30.3946H28.0004C29.3414 30.3946 30.4342 29.3018 30.4382 27.9608V13.3135C30.4382 13.2615 30.4382 13.2095 30.4342 13.1654C30.4502 12.9693 30.4342 12.7811 30.3822 12.601ZM18.5411 10.8797L18.5291 11.5082C18.4971 13.3055 17.2561 14.5145 15.4427 14.5145C14.5581 14.5145 13.7975 14.2302 13.2491 13.6898C12.7006 13.1494 12.4004 12.3968 12.3844 11.5082L12.3724 10.8797H4.13407L7.31651 3.14174H23.2968L26.5673 10.8797H18.5411ZM3.5296 13.954H9.82643C10.7992 16.2398 12.8688 17.5888 15.4467 17.5888C16.7958 17.5888 18.0487 17.2125 19.0615 16.5C19.9502 15.8755 20.6427 15.0028 21.0911 13.954H27.3559V27.3203H3.5296V13.954Z" fill="#2FAFFF"/>
</svg>
